{"glyphs":{"0":{"ha":1135,"x_min":0,"x_max":0,"o":"m 402 356 l 692 356 b 732 396 713 356 732 374 l 732 616 l 442 616 b 402 576 420 616 402 598 z m 827 712 l 827 972 l 442 972 b 46 577 224 972 46 794 l 46 261 l 306 261 l 306 0 l 692 0 b 1088 396 910 0 1088 178 l 1088 712 z m 306 577 b 441 712 306 651 368 712 l 827 712 l 827 396 b 692 261 827 322 766 261 l 306 261 z "},"1":{"ha":500,"x_min":0,"x_max":0,"o":"m 183 712 l 183 0 l 443 0 l 443 972 l 32 972 l 32 712 z "},"2":{"ha":1135,"x_min":0,"x_max":0,"o":"m 49 0 l 1091 0 l 1091 260 l 522 260 b 1038 785 857 459 1128 600 b 695 972 978 907 842 972 l 49 972 l 49 712 l 695 712 b 665 624 841 712 713 652 l 49 268 l 53 261 l 49 261 z "},"3":{"ha":1146,"x_min":0,"x_max":0,"o":"m 788 356 b 836 308 814 356 836 334 b 788 260 836 282 814 260 l 54 260 l 54 0 l 788 0 b 1096 308 958 0 1096 139 b 1039 486 1096 374 1075 436 b 1096 664 1075 536 1096 598 b 788 972 1096 834 958 972 l 54 972 l 54 712 l 788 712 b 836 664 814 712 836 690 b 788 616 836 638 814 616 l 54 616 l 54 356 z "},"4":{"ha":1238,"x_min":0,"x_max":0,"o":"m 1078 226 l 1199 226 l 1199 486 l 1078 486 l 1078 712 l 818 712 l 818 486 l 404 486 l 891 972 l 522 972 l 36 486 l 36 226 l 818 226 l 818 0 l 1078 0 z "},"5":{"ha":1132,"x_min":0,"x_max":0,"o":"m 789 0 b 1098 308 959 0 1098 139 b 789 616 1098 478 959 616 l 316 616 l 316 712 l 837 712 l 837 972 l 56 972 l 56 356 l 789 356 b 837 308 816 356 837 334 b 789 260 837 282 816 260 l 56 260 l 56 0 z "},"6":{"ha":1111,"x_min":0,"x_max":0,"o":"m 304 336 b 343 356 313 348 327 356 l 769 356 b 816 308 795 356 816 334 b 769 260 816 282 795 260 l 343 260 b 295 308 317 260 295 282 b 301 331 295 317 297 324 l 301 331 z m 1077 308 b 769 616 1077 478 938 616 l 466 616 l 672 972 l 371 972 l 76 461 b 35 308 50 416 35 364 b 343 0 35 139 174 0 l 769 0 b 1077 308 938 0 1077 139 z "},"7":{"ha":1089,"x_min":0,"x_max":0,"o":"m 754 712 l 699 616 l 283 616 l 283 356 l 548 356 l 343 0 l 644 0 l 1055 712 l 1055 972 l 13 972 l 13 712 z "},"8":{"ha":1140,"x_min":0,"x_max":0,"o":"m 357 260 b 309 308 331 260 309 282 b 357 356 309 334 331 356 l 782 356 b 830 308 809 356 830 334 b 782 260 830 282 809 260 z m 309 664 b 357 712 309 690 331 712 l 782 712 b 830 664 809 712 830 690 b 782 616 830 638 809 616 l 357 616 b 309 664 330 616 309 638 z m 1091 308 b 1034 486 1091 374 1069 436 b 1091 664 1069 536 1091 598 b 782 972 1091 834 952 972 l 357 972 b 49 664 187 972 49 834 b 106 486 49 598 70 536 b 49 308 70 436 49 374 b 357 0 49 139 187 0 l 782 0 b 1091 308 952 0 1091 139 z "},"9":{"ha":1111,"x_min":0,"x_max":0,"o":"m 806 637 b 767 616 797 624 783 616 l 341 616 b 294 664 315 616 294 638 b 341 712 294 690 315 712 l 767 712 b 815 664 793 712 815 690 b 809 641 815 656 813 648 l 809 641 z m 33 664 b 342 356 33 495 172 356 l 644 356 l 438 0 l 739 0 l 1034 511 b 1075 664 1060 556 1075 608 b 767 972 1075 834 937 972 l 341 972 b 33 664 172 972 33 834 z "},"\u0000":{"ha":0,"x_min":0,"x_max":0,"o":""},"\n":{"ha":0,"x_min":0,"x_max":0,"o":""},"\r":{"ha":0,"x_min":0,"x_max":0,"o":""}," ":{"ha":431,"x_min":0,"x_max":0,"o":""},"!":{"ha":367,"x_min":0,"x_max":0,"o":"m 75 308 l 291 308 l 313 972 l 53 972 z m 53 0 l 313 0 l 313 260 l 53 260 z "},"\"":{"ha":656,"x_min":0,"x_max":0,"o":"m 576 529 l 612 666 l 612 926 l 352 926 l 352 666 l 478 666 l 441 529 l 576 529 z m 42 666 l 167 666 l 131 529 l 266 529 l 302 666 l 302 926 l 42 926 z "},"“":{"ha":656,"x_min":0,"x_max":0,"o":"m 576 529 l 612 666 l 612 926 l 352 926 l 352 666 l 478 666 l 441 529 l 576 529 z m 42 666 l 167 666 l 131 529 l 266 529 l 302 666 l 302 926 l 42 926 z "},"”":{"ha":656,"x_min":0,"x_max":0,"o":"m 576 529 l 612 666 l 612 926 l 352 926 l 352 666 l 478 666 l 441 529 l 576 529 z m 42 666 l 167 666 l 131 529 l 266 529 l 302 666 l 302 926 l 42 926 z "},"#":{"ha":1014,"x_min":0,"x_max":0,"o":"m 419 421 l 454 551 l 594 551 l 559 421 z m 46 0 l 306 0 l 384 291 l 524 291 l 446 0 l 706 0 l 784 291 l 967 291 l 967 421 l 819 421 l 854 551 l 967 551 l 967 681 l 889 681 l 967 972 l 707 972 l 629 681 l 489 681 l 567 972 l 306 972 l 229 681 l 46 681 l 46 551 l 194 551 l 159 421 l 46 421 l 46 291 l 124 291 z "},"$":{"ha":1142,"x_min":0,"x_max":0,"o":"m 358 651 b 311 699 332 651 311 672 b 358 746 311 725 332 746 l 566 746 l 541 651 z m 784 390 b 832 343 810 390 832 369 b 784 295 832 317 810 295 l 576 295 l 601 390 z m 636 1007 l 358 1007 b 50 699 189 1007 50 868 b 358 390 50 529 189 390 l 471 390 l 445 295 l 50 295 l 50 35 l 376 35 l 278 -330 l 408 -330 l 506 35 l 784 35 b 1092 343 953 35 1092 173 b 784 651 1092 512 953 651 l 671 651 l 697 746 l 1092 746 l 1092 1007 l 766 1007 l 864 1372 l 734 1372 z "},"%":{"ha":1728,"x_min":0,"x_max":0,"o":"m 521 810 l 521 972 l 282 972 b 36 727 147 972 36 862 l 36 531 l 198 531 l 198 369 l 437 369 b 682 614 572 369 682 479 l 682 810 z m 1206 161 l 1206 0 l 1445 0 b 1691 245 1580 0 1691 110 l 1691 441 l 1529 441 l 1529 603 l 1290 603 b 1044 357 1155 603 1044 492 l 1044 161 z m 1529 441 l 1529 245 b 1445 161 1529 199 1491 161 l 1206 161 l 1206 357 b 1290 441 1206 403 1244 441 z m 198 531 l 198 727 b 282 810 198 772 236 810 l 521 810 l 521 614 b 437 531 521 569 483 531 z m 603 0 l 864 0 l 1124 972 l 864 972 z "},"&":{"ha":1392,"x_min":0,"x_max":0,"o":"m 357 260 b 309 308 330 260 309 282 b 357 356 309 334 331 356 l 782 356 b 830 308 809 356 830 334 b 782 260 830 282 809 260 z m 960 57 b 1138 0 1011 21 1072 0 l 1351 0 l 1351 260 l 1138 260 b 1091 308 1112 260 1091 282 b 1087 356 1091 324 1089 340 l 1294 356 l 1294 616 l 357 616 b 309 664 330 616 309 638 b 357 711 309 690 331 711 l 1091 711 l 1091 1127 l 830 1127 l 830 972 l 357 972 b 49 664 187 972 49 833 b 106 486 49 598 70 536 b 49 308 70 436 49 374 b 357 0 49 138 187 0 l 782 0 b 960 57 849 0 910 21 z "},"'":{"ha":346,"x_min":0,"x_max":0,"o":"m 42 666 l 167 666 l 131 529 l 266 529 l 302 666 l 302 926 l 42 926 z "},"‘":{"ha":346,"x_min":0,"x_max":0,"o":"m 42 666 l 167 666 l 131 529 l 266 529 l 302 666 l 302 926 l 42 926 z "},"’":{"ha":346,"x_min":0,"x_max":0,"o":"m 42 666 l 167 666 l 131 529 l 266 529 l 302 666 l 302 926 l 42 926 z "},"(":{"ha":593,"x_min":0,"x_max":0,"o":"m 537 1291 b 50 440 268 1291 50 910 b 537 -411 50 -30 268 -411 l 537 -150 b 310 440 412 -150 310 114 b 537 1031 310 766 412 1031 z "},")":{"ha":593,"x_min":0,"x_max":0,"o":"m 56 1031 b 282 440 181 1031 282 766 b 56 -150 282 114 181 -150 l 56 -411 b 543 440 325 -411 543 -30 b 56 1291 543 910 325 1291 z "},"*":{"ha":508,"x_min":0,"x_max":0,"o":"m 189 827 l 103 876 l 38 764 l 124 714 l 38 664 l 103 551 l 189 601 l 189 501 l 319 501 l 319 601 l 405 551 l 471 664 l 384 714 l 471 764 l 405 876 l 319 827 l 319 926 l 189 926 z "},"+":{"ha":582,"x_min":0,"x_max":0,"o":"m 225 375 l 225 184 l 356 184 l 356 375 l 547 375 l 547 505 l 356 505 l 356 696 l 225 696 l 225 505 l 35 505 l 35 375 z "},",":{"ha":342,"x_min":0,"x_max":0,"o":"m 40 -2 l 166 -2 l 129 -138 l 264 -138 l 301 -2 l 301 259 l 40 259 z "},"-":{"ha":500,"x_min":0,"x_max":0,"o":"m 33 375 b 466 375 177 375 322 375 l 466 505 b 33 505 322 505 177 505 z "},".":{"ha":342,"x_min":0,"x_max":0,"o":"m 301 0 l 301 260 l 40 260 l 40 0 z "},"/":{"ha":660,"x_min":0,"x_max":0,"o":"m 69 0 l 330 0 l 590 972 l 330 972 z "},":":{"ha":356,"x_min":0,"x_max":0,"o":"m 47 206 l 308 206 l 308 467 l 47 467 z m 47 555 l 308 555 l 308 816 l 47 816 z "},";":{"ha":360,"x_min":0,"x_max":0,"o":"m 49 555 l 309 555 l 309 816 l 49 816 z m 49 206 l 174 206 l 138 69 l 272 69 l 309 206 l 309 467 l 49 467 z "},"<":{"ha":425,"x_min":0,"x_max":0,"o":"m 380 195 l 380 340 l 206 440 l 380 540 l 380 685 l 35 486 l 35 394 z "},"=":{"ha":593,"x_min":0,"x_max":0,"o":"m 40 648 l 40 517 b 552 517 211 517 381 517 l 552 648 b 40 648 381 648 211 648 z m 40 299 b 552 299 211 299 381 299 l 552 429 b 40 429 381 429 211 429 z "},">":{"ha":425,"x_min":0,"x_max":0,"o":"m 389 394 l 389 486 l 44 685 l 44 540 l 217 440 l 44 340 l 44 195 z "},"?":{"ha":1035,"x_min":0,"x_max":0,"o":"m 348 0 l 608 0 l 608 260 l 348 260 z m 999 664 b 691 972 999 833 860 972 l 22 972 l 22 712 l 691 712 b 739 664 717 712 739 690 b 656 616 739 613 691 616 b 348 308 486 616 348 478 l 608 308 b 656 356 608 334 630 356 l 691 356 b 999 664 860 356 999 494 z "},"@":{"ha":2101,"x_min":0,"x_max":0,"o":"m 1050 1521 b 47 518 496 1521 47 1072 b 1050 -485 47 -36 496 -485 b 1276 -459 1128 -485 1203 -476 l 1276 -189 b 1050 -224 1204 -212 1129 -224 b 308 518 640 -224 308 108 b 1050 1261 308 928 640 1261 b 1792 518 1460 1261 1792 928 b 1664 293 1792 426 1799 293 b 1536 421 1594 293 1536 350 l 1536 1004 l 1050 1004 b 564 518 783 1004 564 785 b 1050 32 564 251 783 32 b 1377 159 1176 32 1290 80 b 1664 32 1448 81 1550 32 b 2053 518 1971 32 2053 276 b 1050 1521 2053 1072 1604 1521 z m 1276 518 b 1050 293 1276 394 1174 293 b 825 518 926 293 825 394 b 1050 744 825 642 926 744 l 1276 744 z "},"A":{"ha":1125,"x_min":0,"x_max":0,"o":"m 302 312 l 302 577 b 437 712 302 650 364 712 l 823 712 l 823 972 l 437 972 b 42 577 220 972 42 794 l 42 0 l 302 0 l 693 261 l 693 582 z m 823 712 l 823 260 l 693 260 l 693 0 l 1084 0 l 1084 712 z "},"À":{"ha":1125,"x_min":0,"x_max":0,"o":"m 302 312 l 302 577 b 437 712 302 650 364 712 l 823 712 l 823 972 l 437 972 b 42 577 220 972 42 794 l 42 0 l 302 0 l 693 261 l 693 582 z m 823 712 l 823 260 l 693 260 l 693 0 l 1084 0 l 1084 712 z "},"Á":{"ha":1125,"x_min":0,"x_max":0,"o":"m 302 312 l 302 577 b 437 712 302 650 364 712 l 823 712 l 823 972 l 437 972 b 42 577 220 972 42 794 l 42 0 l 302 0 l 693 261 l 693 582 z m 823 712 l 823 260 l 693 260 l 693 0 l 1084 0 l 1084 712 z "},"Â":{"ha":1125,"x_min":0,"x_max":0,"o":"m 302 312 l 302 577 b 437 712 302 650 364 712 l 823 712 l 823 972 l 437 972 b 42 577 220 972 42 794 l 42 0 l 302 0 l 693 261 l 693 582 z m 823 712 l 823 260 l 693 260 l 693 0 l 1084 0 l 1084 712 z "},"Ã":{"ha":1125,"x_min":0,"x_max":0,"o":"m 302 312 l 302 577 b 437 712 302 650 364 712 l 823 712 l 823 972 l 437 972 b 42 577 220 972 42 794 l 42 0 l 302 0 l 693 261 l 693 582 z m 823 712 l 823 260 l 693 260 l 693 0 l 1084 0 l 1084 712 z "},"Ä":{"ha":1125,"x_min":0,"x_max":0,"o":"m 302 312 l 302 577 b 437 712 302 650 364 712 l 823 712 l 823 972 l 437 972 b 42 577 220 972 42 794 l 42 0 l 302 0 l 693 261 l 693 582 z m 823 712 l 823 260 l 693 260 l 693 0 l 1084 0 l 1084 712 z "},"Å":{"ha":1125,"x_min":0,"x_max":0,"o":"m 302 312 l 302 577 b 437 712 302 650 364 712 l 823 712 l 823 972 l 437 972 b 42 577 220 972 42 794 l 42 0 l 302 0 l 693 261 l 693 582 z m 823 712 l 823 260 l 693 260 l 693 0 l 1084 0 l 1084 712 z "},"B":{"ha":1135,"x_min":0,"x_max":0,"o":"m 1098 561 l 1098 712 l 837 712 l 837 616 l 316 616 l 316 712 l 837 712 l 837 972 l 56 972 l 56 0 l 1097 0 l 1097 411 l 1083 420 l 967 486 l 1083 553 z m 837 261 l 316 261 l 316 356 l 837 356 z "},"C":{"ha":1114,"x_min":0,"x_max":0,"o":"m 42 0 l 1084 0 l 1084 260 l 302 260 l 302 577 b 437 712 302 651 364 712 l 1084 712 l 1084 972 l 437 972 b 42 577 220 972 42 794 z "},"Ç":{"ha":1114,"x_min":0,"x_max":0,"o":"m 42 0 l 1084 0 l 1084 260 l 302 260 l 302 577 b 437 712 302 651 364 712 l 1084 712 l 1084 972 l 437 972 b 42 577 220 972 42 794 z "},"D":{"ha":1125,"x_min":0,"x_max":0,"o":"m 301 260 l 301 712 l 686 712 b 822 577 760 712 822 650 l 822 260 z m 165 0 l 1082 0 l 1082 577 b 687 972 1082 794 904 972 l 301 972 l 301 712 l 40 712 b 40 0 40 475 40 237 l 165 0 z "},"E":{"ha":1128,"x_min":0,"x_max":0,"o":"m 1098 0 l 1098 260 l 316 260 l 316 356 l 837 356 l 837 616 l 316 616 l 316 712 l 1098 712 l 1098 972 l 56 972 l 56 0 z "},"È":{"ha":1128,"x_min":0,"x_max":0,"o":"m 1098 0 l 1098 260 l 316 260 l 316 356 l 837 356 l 837 616 l 316 616 l 316 712 l 1098 712 l 1098 972 l 56 972 l 56 0 z "},"É":{"ha":1128,"x_min":0,"x_max":0,"o":"m 1098 0 l 1098 260 l 316 260 l 316 356 l 837 356 l 837 616 l 316 616 l 316 712 l 1098 712 l 1098 972 l 56 972 l 56 0 z "},"Ê":{"ha":1128,"x_min":0,"x_max":0,"o":"m 1098 0 l 1098 260 l 316 260 l 316 356 l 837 356 l 837 616 l 316 616 l 316 712 l 1098 712 l 1098 972 l 56 972 l 56 0 z "},"Ë":{"ha":1128,"x_min":0,"x_max":0,"o":"m 1098 0 l 1098 260 l 316 260 l 316 356 l 837 356 l 837 616 l 316 616 l 316 712 l 1098 712 l 1098 972 l 56 972 l 56 0 z "},"F":{"ha":1128,"x_min":0,"x_max":0,"o":"m 316 712 l 1098 712 l 1098 972 l 56 972 l 56 0 l 316 0 l 316 356 l 837 356 l 837 616 l 316 616 z "},"G":{"ha":1138,"x_min":0,"x_max":0,"o":"m 1084 0 l 1084 616 l 563 616 l 563 356 l 823 356 l 823 260 l 302 260 l 302 577 b 437 712 302 651 364 712 l 1084 712 l 1084 972 l 437 972 b 42 577 220 972 42 794 l 42 0 z "},"H":{"ha":1154,"x_min":0,"x_max":0,"o":"m 316 356 l 837 356 l 837 0 l 1098 0 l 1098 972 l 837 972 l 837 616 l 316 616 l 316 972 l 56 972 l 56 0 l 316 0 z "},"I":{"ha":531,"x_min":0,"x_max":0,"o":"m 497 0 l 497 260 l 395 260 l 395 712 l 497 712 l 497 972 l 33 972 l 33 712 l 135 712 l 135 260 l 33 260 l 33 0 z "},"Ì":{"ha":531,"x_min":0,"x_max":0,"o":"m 497 0 l 497 260 l 395 260 l 395 712 l 497 712 l 497 972 l 33 972 l 33 712 l 135 712 l 135 260 l 33 260 l 33 0 z "},"Í":{"ha":531,"x_min":0,"x_max":0,"o":"m 497 0 l 497 260 l 395 260 l 395 712 l 497 712 l 497 972 l 33 972 l 33 712 l 135 712 l 135 260 l 33 260 l 33 0 z "},"Î":{"ha":531,"x_min":0,"x_max":0,"o":"m 497 0 l 497 260 l 395 260 l 395 712 l 497 712 l 497 972 l 33 972 l 33 712 l 135 712 l 135 260 l 33 260 l 33 0 z "},"Ï":{"ha":531,"x_min":0,"x_max":0,"o":"m 497 0 l 497 260 l 395 260 l 395 712 l 497 712 l 497 972 l 33 972 l 33 712 l 135 712 l 135 260 l 33 260 l 33 0 z "},"J":{"ha":1099,"x_min":0,"x_max":0,"o":"m 811 712 l 811 396 b 675 261 811 322 749 261 l 29 261 l 29 0 l 675 0 b 1071 396 893 0 1071 178 l 1071 712 l 811 712 l 811 972 l 290 972 l 290 712 z "},"K":{"ha":1088,"x_min":0,"x_max":0,"o":"m 542 281 l 767 0 l 1097 0 l 872 281 z m 56 0 l 316 0 l 1098 972 l 767 972 l 316 411 l 316 972 l 56 972 z "},"L":{"ha":1128,"x_min":0,"x_max":0,"o":"m 1098 0 l 1098 260 l 316 260 l 316 972 l 56 972 l 56 0 b 1098 0 403 0 750 0 z "},"M":{"ha":1385,"x_min":0,"x_max":0,"o":"m 42 0 l 302 0 l 302 577 b 437 712 302 651 364 712 l 563 712 l 563 0 l 823 0 l 823 712 l 1084 712 l 1084 0 l 1344 0 l 1344 712 l 1084 712 l 1084 972 l 768 972 l 759 957 l 693 842 l 626 957 l 618 972 l 437 972 b 42 577 220 972 42 794 z "},"N":{"ha":1125,"x_min":0,"x_max":0,"o":"m 42 0 l 302 0 l 302 577 b 437 712 302 651 364 712 l 1084 712 l 1084 0 l 823 0 l 823 972 l 437 972 b 42 577 220 972 42 794 z "},"Ñ":{"ha":1125,"x_min":0,"x_max":0,"o":"m 42 0 l 302 0 l 302 577 b 437 712 302 651 364 712 l 1084 712 l 1084 0 l 823 0 l 823 972 l 437 972 b 42 577 220 972 42 794 z "},"O":{"ha":1094,"x_min":0,"x_max":0,"o":"m 285 0 l 671 0 b 1067 396 889 0 1067 178 l 1067 712 l 806 712 l 806 972 l 421 972 b 25 577 203 972 25 794 l 25 261 l 285 261 z m 806 712 l 806 396 b 671 261 806 322 745 261 l 285 261 l 285 577 b 421 712 285 650 347 712 z "},"Ò":{"ha":1094,"x_min":0,"x_max":0,"o":"m 285 0 l 671 0 b 1067 396 889 0 1067 178 l 1067 712 l 806 712 l 806 972 l 421 972 b 25 577 203 972 25 794 l 25 261 l 285 261 z m 806 712 l 806 396 b 671 261 806 322 745 261 l 285 261 l 285 577 b 421 712 285 650 347 712 z "},"Ó":{"ha":1094,"x_min":0,"x_max":0,"o":"m 285 0 l 671 0 b 1067 396 889 0 1067 178 l 1067 712 l 806 712 l 806 972 l 421 972 b 25 577 203 972 25 794 l 25 261 l 285 261 z m 806 712 l 806 396 b 671 261 806 322 745 261 l 285 261 l 285 577 b 421 712 285 650 347 712 z "},"Ô":{"ha":1094,"x_min":0,"x_max":0,"o":"m 285 0 l 671 0 b 1067 396 889 0 1067 178 l 1067 712 l 806 712 l 806 972 l 421 972 b 25 577 203 972 25 794 l 25 261 l 285 261 z m 806 712 l 806 396 b 671 261 806 322 745 261 l 285 261 l 285 577 b 421 712 285 650 347 712 z "},"Õ":{"ha":1094,"x_min":0,"x_max":0,"o":"m 285 0 l 671 0 b 1067 396 889 0 1067 178 l 1067 712 l 806 712 l 806 972 l 421 972 b 25 577 203 972 25 794 l 25 261 l 285 261 z m 806 712 l 806 396 b 671 261 806 322 745 261 l 285 261 l 285 577 b 421 712 285 650 347 712 z "},"Ö":{"ha":1094,"x_min":0,"x_max":0,"o":"m 285 0 l 671 0 b 1067 396 889 0 1067 178 l 1067 712 l 806 712 l 806 972 l 421 972 b 25 577 203 972 25 794 l 25 261 l 285 261 z m 806 712 l 806 396 b 671 261 806 322 745 261 l 285 261 l 285 577 b 421 712 285 650 347 712 z "},"Ø":{"ha":1094,"x_min":0,"x_max":0,"o":"m 285 0 l 671 0 b 1067 396 889 0 1067 178 l 1067 712 l 806 712 l 806 972 l 421 972 b 25 577 203 972 25 794 l 25 261 l 285 261 z m 806 712 l 806 396 b 671 261 806 322 745 261 l 285 261 l 285 577 b 421 712 285 650 347 712 z "},"P":{"ha":1108,"x_min":0,"x_max":0,"o":"m 837 712 l 837 584 b 709 456 837 514 780 456 l 316 456 l 316 712 l 837 712 l 837 972 l 56 972 b 56 0 56 648 56 324 l 316 0 l 316 196 l 709 196 b 1098 584 923 196 1098 371 l 1098 712 z "},"Q":{"ha":1096,"x_min":0,"x_max":0,"o":"m 806 712 l 806 972 l 421 972 b 25 577 203 972 25 794 l 25 261 l 285 261 l 285 0 l 671 0 b 702 1 682 0 692 1 l 841 -240 l 1067 -110 l 942 107 b 1067 396 1019 180 1067 282 l 1067 712 z m 285 577 b 421 712 285 650 347 712 l 806 712 l 806 396 b 671 261 806 322 745 261 l 285 261 z "},"R":{"ha":1118,"x_min":0,"x_max":0,"o":"m 1098 584 l 1098 712 l 837 712 l 837 584 b 709 456 837 514 780 456 l 316 456 l 316 712 l 837 712 l 837 972 l 56 972 l 56 0 l 316 0 l 316 196 l 610 196 l 767 0 l 1098 0 l 900 246 b 1098 584 1018 313 1098 440 z "},"S":{"ha":1111,"x_min":0,"x_max":0,"o":"m 1077 972 l 343 972 b 35 664 173 972 35 834 b 343 356 35 495 173 356 l 769 356 b 816 308 795 356 816 334 b 769 260 816 282 795 260 l 35 260 l 35 0 l 769 0 b 1077 308 938 0 1077 139 b 769 616 1077 478 938 616 l 343 616 b 295 664 317 616 295 638 b 343 712 295 690 317 712 l 1077 712 z "},"T":{"ha":1101,"x_min":0,"x_max":0,"o":"m 680 712 l 1071 712 l 1071 972 l 29 972 l 29 712 l 420 712 l 420 0 l 680 0 z "},"U":{"ha":1110,"x_min":0,"x_max":0,"o":"m 554 0 b 1075 521 841 0 1075 234 l 1075 972 l 815 972 l 815 521 b 554 260 815 378 697 260 b 294 521 411 260 294 378 l 294 972 l 33 972 l 33 521 b 554 0 33 234 268 0 z "},"Ù":{"ha":1110,"x_min":0,"x_max":0,"o":"m 554 0 b 1075 521 841 0 1075 234 l 1075 972 l 815 972 l 815 521 b 554 260 815 378 697 260 b 294 521 411 260 294 378 l 294 972 l 33 972 l 33 521 b 554 0 33 234 268 0 z "},"Ú":{"ha":1110,"x_min":0,"x_max":0,"o":"m 554 0 b 1075 521 841 0 1075 234 l 1075 972 l 815 972 l 815 521 b 554 260 815 378 697 260 b 294 521 411 260 294 378 l 294 972 l 33 972 l 33 521 b 554 0 33 234 268 0 z "},"Û":{"ha":1110,"x_min":0,"x_max":0,"o":"m 554 0 b 1075 521 841 0 1075 234 l 1075 972 l 815 972 l 815 521 b 554 260 815 378 697 260 b 294 521 411 260 294 378 l 294 972 l 33 972 l 33 521 b 554 0 33 234 268 0 z "},"Ü":{"ha":1110,"x_min":0,"x_max":0,"o":"m 554 0 b 1075 521 841 0 1075 234 l 1075 972 l 815 972 l 815 521 b 554 260 815 378 697 260 b 294 521 411 260 294 378 l 294 972 l 33 972 l 33 521 b 554 0 33 234 268 0 z "},"V":{"ha":1124,"x_min":0,"x_max":0,"o":"m 1081 972 l 820 972 l 820 396 b 685 261 820 322 759 261 l 39 261 l 39 972 l 299 972 l 299 0 l 685 0 b 1081 396 903 0 1081 178 z "},"W":{"ha":1383,"x_min":0,"x_max":0,"o":"m 820 972 l 560 972 l 560 260 l 299 260 l 299 972 l 39 972 l 39 260 l 299 260 l 299 0 l 615 0 l 624 15 l 690 130 l 757 15 l 765 0 l 946 0 b 1341 396 1163 0 1341 178 l 1341 972 l 1081 972 l 1081 396 b 946 261 1081 322 1020 261 l 820 261 z "},"X":{"ha":1029,"x_min":0,"x_max":0,"o":"m 315 0 l 502 252 l 705 0 l 1035 0 l 809 281 l 523 281 l 1035 972 l 705 972 l 523 724 l 323 972 l -7 972 l 219 692 l 499 692 l -7 0 z "},"Y":{"ha":1049,"x_min":0,"x_max":0,"o":"m 654 372 b 1045 877 878 431 1045 635 l 1045 972 l 784 972 l 784 877 b 524 616 784 734 666 616 b 263 877 381 616 263 734 l 263 972 l 3 972 l 3 877 b 394 372 3 635 169 431 l 394 0 l 654 0 l 654 372 z "},"Ý":{"ha":1049,"x_min":0,"x_max":0,"o":"m 654 372 b 1045 877 878 431 1045 635 l 1045 972 l 784 972 l 784 877 b 524 616 784 734 666 616 b 263 877 381 616 263 734 l 263 972 l 3 972 l 3 877 b 394 372 3 635 169 431 l 394 0 l 654 0 l 654 372 z "},"Ÿ":{"ha":1049,"x_min":0,"x_max":0,"o":"m 654 372 b 1045 877 878 431 1045 635 l 1045 972 l 784 972 l 784 877 b 524 616 784 734 666 616 b 263 877 381 616 263 734 l 263 972 l 3 972 l 3 877 b 394 372 3 635 169 431 l 394 0 l 654 0 l 654 372 z "},"Z":{"ha":1104,"x_min":0,"x_max":0,"o":"m 640 712 l 31 260 l 31 0 l 1073 0 l 1073 260 l 463 260 l 1073 712 l 1073 972 l 31 972 l 31 712 z "},"[":{"ha":525,"x_min":0,"x_max":0,"o":"m 56 -411 l 469 -411 l 469 -150 l 316 -150 l 316 1031 l 469 1031 l 469 1291 l 56 1291 z "},"\\":{"ha":660,"x_min":0,"x_max":0,"o":"m 330 972 l 69 972 l 330 0 l 591 0 z "},"]":{"ha":525,"x_min":0,"x_max":0,"o":"m 469 1291 l 56 1291 l 56 1031 l 208 1031 l 208 -150 l 56 -150 l 56 -411 l 469 -411 z "},"^":{"ha":544,"x_min":0,"x_max":0,"o":"m 26 581 l 172 581 l 272 754 l 372 581 l 517 581 l 318 926 l 226 926 z "},"_":{"ha":579,"x_min":0,"x_max":0,"o":"m 33 0 b 545 0 204 0 374 0 l 545 130 b 33 130 374 130 204 130 z "},"`":{"ha":267,"x_min":0,"x_max":0,"o":"m 102 926 b 33 670 79 841 56 756 l 164 670 b 232 926 186 756 209 841 z "},"a":{"ha":1125,"x_min":0,"x_max":0,"o":"m 302 312 l 302 577 b 437 712 302 650 364 712 l 823 712 l 823 972 l 437 972 b 42 577 220 972 42 794 l 42 0 l 302 0 l 693 261 l 693 582 z m 823 712 l 823 260 l 693 260 l 693 0 l 1084 0 l 1084 712 z "},"à":{"ha":1125,"x_min":0,"x_max":0,"o":"m 302 312 l 302 577 b 437 712 302 650 364 712 l 823 712 l 823 972 l 437 972 b 42 577 220 972 42 794 l 42 0 l 302 0 l 693 261 l 693 582 z m 823 712 l 823 260 l 693 260 l 693 0 l 1084 0 l 1084 712 z "},"á":{"ha":1125,"x_min":0,"x_max":0,"o":"m 302 312 l 302 577 b 437 712 302 650 364 712 l 823 712 l 823 972 l 437 972 b 42 577 220 972 42 794 l 42 0 l 302 0 l 693 261 l 693 582 z m 823 712 l 823 260 l 693 260 l 693 0 l 1084 0 l 1084 712 z "},"â":{"ha":1125,"x_min":0,"x_max":0,"o":"m 302 312 l 302 577 b 437 712 302 650 364 712 l 823 712 l 823 972 l 437 972 b 42 577 220 972 42 794 l 42 0 l 302 0 l 693 261 l 693 582 z m 823 712 l 823 260 l 693 260 l 693 0 l 1084 0 l 1084 712 z "},"ã":{"ha":1125,"x_min":0,"x_max":0,"o":"m 302 312 l 302 577 b 437 712 302 650 364 712 l 823 712 l 823 972 l 437 972 b 42 577 220 972 42 794 l 42 0 l 302 0 l 693 261 l 693 582 z m 823 712 l 823 260 l 693 260 l 693 0 l 1084 0 l 1084 712 z "},"ä":{"ha":1125,"x_min":0,"x_max":0,"o":"m 302 312 l 302 577 b 437 712 302 650 364 712 l 823 712 l 823 972 l 437 972 b 42 577 220 972 42 794 l 42 0 l 302 0 l 693 261 l 693 582 z m 823 712 l 823 260 l 693 260 l 693 0 l 1084 0 l 1084 712 z "},"å":{"ha":1125,"x_min":0,"x_max":0,"o":"m 302 312 l 302 577 b 437 712 302 650 364 712 l 823 712 l 823 972 l 437 972 b 42 577 220 972 42 794 l 42 0 l 302 0 l 693 261 l 693 582 z m 823 712 l 823 260 l 693 260 l 693 0 l 1084 0 l 1084 712 z "},"b":{"ha":1135,"x_min":0,"x_max":0,"o":"m 1098 561 l 1098 712 l 837 712 l 837 616 l 316 616 l 316 712 l 837 712 l 837 972 l 56 972 l 56 0 l 1097 0 l 1097 411 l 1083 419 l 967 486 l 1083 553 z m 316 260 l 316 356 l 837 356 l 837 260 z "},"c":{"ha":1114,"x_min":0,"x_max":0,"o":"m 437 712 l 1084 712 l 1084 972 l 437 972 b 42 577 220 972 42 794 l 42 0 l 1084 0 l 1084 260 l 302 260 l 302 577 b 437 712 302 650 363 712 z "},"ç":{"ha":1114,"x_min":0,"x_max":0,"o":"m 437 712 l 1084 712 l 1084 972 l 437 972 b 42 577 220 972 42 794 l 42 0 l 1084 0 l 1084 260 l 302 260 l 302 577 b 437 712 302 650 363 712 z "},"d":{"ha":1125,"x_min":0,"x_max":0,"o":"m 687 972 l 301 972 l 301 712 l 687 712 b 822 577 761 712 822 650 l 822 261 l 301 261 l 301 712 l 40 712 b 40 0 40 475 40 237 l 1082 0 l 1082 577 b 687 972 1082 794 904 972 z "},"e":{"ha":1128,"x_min":0,"x_max":0,"o":"m 1098 712 l 1098 972 l 56 972 l 56 0 l 1098 0 l 1098 260 l 316 260 l 316 356 l 837 356 l 837 616 l 316 616 l 316 712 z "},"è":{"ha":1128,"x_min":0,"x_max":0,"o":"m 1098 712 l 1098 972 l 56 972 l 56 0 l 1098 0 l 1098 260 l 316 260 l 316 356 l 837 356 l 837 616 l 316 616 l 316 712 z "},"é":{"ha":1128,"x_min":0,"x_max":0,"o":"m 1098 712 l 1098 972 l 56 972 l 56 0 l 1098 0 l 1098 260 l 316 260 l 316 356 l 837 356 l 837 616 l 316 616 l 316 712 z "},"ê":{"ha":1128,"x_min":0,"x_max":0,"o":"m 1098 712 l 1098 972 l 56 972 l 56 0 l 1098 0 l 1098 260 l 316 260 l 316 356 l 837 356 l 837 616 l 316 616 l 316 712 z "},"ë":{"ha":1128,"x_min":0,"x_max":0,"o":"m 1098 712 l 1098 972 l 56 972 l 56 0 l 1098 0 l 1098 260 l 316 260 l 316 356 l 837 356 l 837 616 l 316 616 l 316 712 z "},"f":{"ha":1128,"x_min":0,"x_max":0,"o":"m 1098 712 l 1098 972 l 56 972 l 56 0 l 316 0 l 316 356 l 837 356 l 837 616 l 316 616 l 316 712 z "},"g":{"ha":1138,"x_min":0,"x_max":0,"o":"m 437 712 l 1084 712 l 1084 972 l 437 972 b 42 577 220 972 42 794 l 42 0 l 1084 0 l 1084 616 l 563 616 l 563 356 l 823 356 l 823 260 l 302 260 l 302 577 b 437 712 302 650 363 712 z "},"h":{"ha":1154,"x_min":0,"x_max":0,"o":"m 837 972 l 837 616 l 316 616 l 316 972 l 56 972 l 56 0 l 316 0 l 316 356 l 837 356 l 837 0 l 1098 0 l 1098 972 z "},"i":{"ha":531,"x_min":0,"x_max":0,"o":"m 497 712 l 497 972 l 33 972 l 33 712 l 135 712 l 135 260 l 33 260 l 33 0 l 497 0 l 497 260 l 395 260 l 395 712 z "},"ì":{"ha":531,"x_min":0,"x_max":0,"o":"m 497 712 l 497 972 l 33 972 l 33 712 l 135 712 l 135 260 l 33 260 l 33 0 l 497 0 l 497 260 l 395 260 l 395 712 z "},"í":{"ha":531,"x_min":0,"x_max":0,"o":"m 497 712 l 497 972 l 33 972 l 33 712 l 135 712 l 135 260 l 33 260 l 33 0 l 497 0 l 497 260 l 395 260 l 395 712 z "},"î":{"ha":531,"x_min":0,"x_max":0,"o":"m 497 712 l 497 972 l 33 972 l 33 712 l 135 712 l 135 260 l 33 260 l 33 0 l 497 0 l 497 260 l 395 260 l 395 712 z "},"ï":{"ha":531,"x_min":0,"x_max":0,"o":"m 497 712 l 497 972 l 33 972 l 33 712 l 135 712 l 135 260 l 33 260 l 33 0 l 497 0 l 497 260 l 395 260 l 395 712 z "},"j":{"ha":1099,"x_min":0,"x_max":0,"o":"m 811 712 l 811 972 l 290 972 l 290 712 z m 811 712 l 811 396 b 675 261 811 322 749 261 l 29 261 l 29 0 l 675 0 b 1071 396 893 0 1071 178 l 1071 712 z "},"k":{"ha":1092,"x_min":0,"x_max":0,"o":"m 767 972 l 316 411 l 316 972 l 56 972 l 56 0 l 316 0 l 1098 972 z m 542 281 l 767 0 l 1098 0 l 872 281 z "},"l":{"ha":1128,"x_min":0,"x_max":0,"o":"m 316 260 l 316 972 l 56 972 l 56 0 b 1098 0 403 0 750 0 l 1098 260 z "},"m":{"ha":1385,"x_min":0,"x_max":0,"o":"m 1344 0 l 1344 712 l 1084 712 l 1084 0 z m 768 972 l 760 957 l 693 842 l 626 957 l 618 972 l 437 972 b 42 577 220 972 42 794 l 42 0 l 302 0 l 302 577 b 437 712 302 651 364 712 l 563 712 l 563 0 l 823 0 l 823 712 l 1084 712 l 1084 972 z "},"n":{"ha":1125,"x_min":0,"x_max":0,"o":"m 437 972 b 42 577 220 972 42 794 l 42 0 l 302 0 l 302 577 b 437 712 302 651 364 712 l 823 712 l 823 972 z m 1084 0 l 1084 712 l 823 712 l 823 0 z "},"ñ":{"ha":1125,"x_min":0,"x_max":0,"o":"m 437 972 b 42 577 220 972 42 794 l 42 0 l 302 0 l 302 577 b 437 712 302 651 364 712 l 823 712 l 823 972 z m 1084 0 l 1084 712 l 823 712 l 823 0 z "},"o":{"ha":1096,"x_min":0,"x_max":0,"o":"m 808 712 l 808 396 b 673 261 808 322 746 261 l 287 261 l 287 0 l 673 0 b 1068 396 890 0 1068 178 l 1068 712 z m 422 712 l 808 712 l 808 972 l 422 972 b 26 577 204 972 26 794 l 26 261 l 287 261 l 287 577 b 422 712 287 650 348 712 z "},"ò":{"ha":1096,"x_min":0,"x_max":0,"o":"m 808 712 l 808 396 b 673 261 808 322 746 261 l 287 261 l 287 0 l 673 0 b 1068 396 890 0 1068 178 l 1068 712 z m 422 712 l 808 712 l 808 972 l 422 972 b 26 577 204 972 26 794 l 26 261 l 287 261 l 287 577 b 422 712 287 650 348 712 z "},"ó":{"ha":1096,"x_min":0,"x_max":0,"o":"m 808 712 l 808 396 b 673 261 808 322 746 261 l 287 261 l 287 0 l 673 0 b 1068 396 890 0 1068 178 l 1068 712 z m 422 712 l 808 712 l 808 972 l 422 972 b 26 577 204 972 26 794 l 26 261 l 287 261 l 287 577 b 422 712 287 650 348 712 z "},"ô":{"ha":1096,"x_min":0,"x_max":0,"o":"m 808 712 l 808 396 b 673 261 808 322 746 261 l 287 261 l 287 0 l 673 0 b 1068 396 890 0 1068 178 l 1068 712 z m 422 712 l 808 712 l 808 972 l 422 972 b 26 577 204 972 26 794 l 26 261 l 287 261 l 287 577 b 422 712 287 650 348 712 z "},"õ":{"ha":1096,"x_min":0,"x_max":0,"o":"m 808 712 l 808 396 b 673 261 808 322 746 261 l 287 261 l 287 0 l 673 0 b 1068 396 890 0 1068 178 l 1068 712 z m 422 712 l 808 712 l 808 972 l 422 972 b 26 577 204 972 26 794 l 26 261 l 287 261 l 287 577 b 422 712 287 650 348 712 z "},"ö":{"ha":1096,"x_min":0,"x_max":0,"o":"m 808 712 l 808 396 b 673 261 808 322 746 261 l 287 261 l 287 0 l 673 0 b 1068 396 890 0 1068 178 l 1068 712 z m 422 712 l 808 712 l 808 972 l 422 972 b 26 577 204 972 26 794 l 26 261 l 287 261 l 287 577 b 422 712 287 650 348 712 z "},"ø":{"ha":1096,"x_min":0,"x_max":0,"o":"m 808 712 l 808 396 b 673 261 808 322 746 261 l 287 261 l 287 0 l 673 0 b 1068 396 890 0 1068 178 l 1068 712 z m 422 712 l 808 712 l 808 972 l 422 972 b 26 577 204 972 26 794 l 26 261 l 287 261 l 287 577 b 422 712 287 650 348 712 z "},"p":{"ha":1108,"x_min":0,"x_max":0,"o":"m 837 712 l 837 584 b 709 456 837 514 780 456 l 316 456 l 316 712 l 837 712 l 837 972 l 56 972 b 56 0 56 648 56 324 l 316 0 l 316 196 l 709 196 b 1098 584 923 196 1098 371 l 1098 712 z "},"q":{"ha":1096,"x_min":0,"x_max":0,"o":"m 421 712 l 806 712 l 806 972 l 421 972 b 25 577 203 972 25 794 l 25 261 l 285 261 l 285 577 b 421 712 285 650 347 712 z m 1067 712 l 806 712 l 806 396 b 671 261 806 322 745 261 l 285 261 l 285 0 l 671 0 b 702 1 682 0 692 1 l 841 -240 l 1067 -109 l 942 108 b 1067 396 1019 180 1067 282 z "},"r":{"ha":1118,"x_min":0,"x_max":0,"o":"m 1098 584 l 1098 712 l 837 712 l 837 584 b 709 456 837 514 780 456 l 316 456 l 316 712 l 837 712 l 837 972 l 56 972 l 56 0 l 316 0 l 316 196 l 610 196 l 767 0 l 1098 0 l 900 246 b 1098 584 1018 313 1098 440 z "},"s":{"ha":1111,"x_min":0,"x_max":0,"o":"m 343 712 l 1077 712 l 1077 972 l 343 972 b 35 664 173 972 35 834 b 343 356 35 495 173 356 l 769 356 b 816 308 795 356 816 334 b 769 260 816 282 795 260 l 35 260 l 35 0 l 769 0 b 1077 308 938 0 1077 139 b 769 616 1077 478 938 616 l 343 616 b 295 664 317 616 295 638 b 343 712 295 690 317 712 z "},"t":{"ha":1101,"x_min":0,"x_max":0,"o":"m 29 972 l 29 712 l 420 712 l 420 0 l 680 0 l 680 712 l 1071 712 l 1071 972 z "},"u":{"ha":1110,"x_min":0,"x_max":0,"o":"m 815 972 l 815 521 b 554 260 815 378 697 260 b 294 521 411 260 294 378 l 294 972 l 33 972 l 33 521 b 554 0 33 234 268 0 b 1075 521 841 0 1075 234 l 1075 972 z "},"ù":{"ha":1110,"x_min":0,"x_max":0,"o":"m 815 972 l 815 521 b 554 260 815 378 697 260 b 294 521 411 260 294 378 l 294 972 l 33 972 l 33 521 b 554 0 33 234 268 0 b 1075 521 841 0 1075 234 l 1075 972 z "},"ú":{"ha":1110,"x_min":0,"x_max":0,"o":"m 815 972 l 815 521 b 554 260 815 378 697 260 b 294 521 411 260 294 378 l 294 972 l 33 972 l 33 521 b 554 0 33 234 268 0 b 1075 521 841 0 1075 234 l 1075 972 z "},"û":{"ha":1110,"x_min":0,"x_max":0,"o":"m 815 972 l 815 521 b 554 260 815 378 697 260 b 294 521 411 260 294 378 l 294 972 l 33 972 l 33 521 b 554 0 33 234 268 0 b 1075 521 841 0 1075 234 l 1075 972 z "},"ü":{"ha":1110,"x_min":0,"x_max":0,"o":"m 815 972 l 815 521 b 554 260 815 378 697 260 b 294 521 411 260 294 378 l 294 972 l 33 972 l 33 521 b 554 0 33 234 268 0 b 1075 521 841 0 1075 234 l 1075 972 z "},"v":{"ha":1124,"x_min":0,"x_max":0,"o":"m 299 260 l 299 972 l 39 972 l 39 260 z m 820 972 l 820 396 b 685 261 820 322 759 261 l 299 261 l 299 0 l 685 0 b 1081 396 903 0 1081 178 l 1081 972 z "},"w":{"ha":1385,"x_min":0,"x_max":0,"o":"m 299 260 l 299 972 l 39 972 l 39 260 z m 1081 972 l 1081 396 b 946 261 1081 322 1020 261 l 821 261 l 821 972 l 560 972 l 560 260 l 300 260 l 300 0 l 615 0 l 624 15 l 690 130 l 757 15 l 766 0 l 946 0 b 1342 396 1164 0 1342 178 l 1342 972 z "},"x":{"ha":1029,"x_min":0,"x_max":0,"o":"m 523 281 l 1035 972 l 705 972 l 523 724 l 323 972 l -7 972 l 219 692 l 499 692 l -7 0 l 315 0 l 502 252 l 705 0 l 1035 0 l 809 281 z "},"y":{"ha":1049,"x_min":0,"x_max":0,"o":"m 784 972 l 784 877 b 524 616 784 734 666 616 b 263 877 381 616 263 734 l 263 972 l 3 972 l 3 877 b 394 372 3 635 169 431 l 394 0 l 654 0 l 654 372 b 1045 877 878 431 1045 635 l 1045 972 z "},"ý":{"ha":1049,"x_min":0,"x_max":0,"o":"m 784 972 l 784 877 b 524 616 784 734 666 616 b 263 877 381 616 263 734 l 263 972 l 3 972 l 3 877 b 394 372 3 635 169 431 l 394 0 l 654 0 l 654 372 b 1045 877 878 431 1045 635 l 1045 972 z "},"ÿ":{"ha":1049,"x_min":0,"x_max":0,"o":"m 784 972 l 784 877 b 524 616 784 734 666 616 b 263 877 381 616 263 734 l 263 972 l 3 972 l 3 877 b 394 372 3 635 169 431 l 394 0 l 654 0 l 654 372 b 1045 877 878 431 1045 635 l 1045 972 z "},"z":{"ha":1104,"x_min":0,"x_max":0,"o":"m 1073 972 l 31 972 l 31 712 l 640 712 l 31 260 l 31 0 l 1073 0 l 1073 260 l 463 260 l 1073 712 z "},"{":{"ha":586,"x_min":0,"x_max":0,"o":"m 117 -229 b 293 -405 117 -326 196 -405 l 530 -405 l 530 -144 l 378 -144 l 378 273 b 290 425 378 337 346 392 l 252 446 l 290 468 b 378 620 346 500 378 556 l 378 1037 l 530 1037 l 530 1297 l 293 1297 b 117 1122 196 1297 117 1218 l 117 664 b 80 556 117 623 104 586 b 80 337 29 491 29 402 b 117 228 104 307 117 270 z "},"|":{"ha":242,"x_min":0,"x_max":0,"o":"m 56 1316 b 56 -386 56 749 56 181 l 186 -386 b 186 1316 186 181 186 749 z "},"}":{"ha":588,"x_min":0,"x_max":0,"o":"m 469 -229 l 469 228 b 506 337 469 270 482 307 b 506 556 557 402 557 491 b 469 664 482 586 469 623 l 469 1122 b 293 1297 469 1218 390 1297 l 56 1297 l 56 1037 l 209 1037 l 209 620 b 296 468 209 556 240 500 l 334 446 l 296 425 b 209 273 241 392 209 337 l 209 -144 l 56 -144 l 56 -405 l 293 -405 b 469 -229 390 -405 469 -326 z "},"~":{"ha":672,"x_min":0,"x_max":0,"o":"m 32 623 b 197 336 104 498 125 461 l 310 336 l 419 525 l 528 336 l 641 401 b 476 688 569 526 548 563 l 363 688 l 254 499 l 145 688 z "}," ":{"ha":589,"x_min":0,"x_max":0,"o":""},"¢":{"ha":1143,"x_min":0,"x_max":0,"o":"m 313 291 l 313 607 b 449 742 313 681 375 742 l 569 742 l 448 291 z m 639 1003 l 448 1003 b 53 607 231 1003 53 825 l 53 30 l 379 30 l 281 -334 l 411 -334 l 509 30 l 1095 30 l 1095 291 l 578 291 l 699 742 l 1095 742 l 1095 1003 l 769 1003 l 867 1368 l 737 1368 z "},"­":{"ha":0,"x_min":0,"x_max":0,"o":""},"€":{"ha":1253,"x_min":0,"x_max":0,"o":"m 1205 0 l 1205 260 l 423 260 l 423 311 l 619 311 l 619 442 l 423 442 l 423 530 l 619 530 l 619 660 l 453 660 b 558 712 478 691 516 712 l 1205 712 l 1205 972 l 558 972 b 172 660 369 972 210 838 l 40 660 l 40 530 l 162 530 l 162 442 l 40 442 l 40 311 l 162 311 l 162 0 z "}}}
